<?xml version="1.0" encoding="UTF-8" standalone="no"?>
<svg width="22px" height="22px" viewBox="0 0 22 22" version="1.1" xmlns="http://www.w3.org/2000/svg" xmlns:xlink="http://www.w3.org/1999/xlink" xmlns:sketch="http://www.bohemiancoding.com/sketch/ns">
    <!-- Generator: Sketch 3.3.2 (12043) - http://www.bohemiancoding.com/sketch -->
    <title>Shape Copy 2</title>
    <desc>Created with Sketch.</desc>
    <defs></defs>
    <g id="Page-1" stroke="none" stroke-width="1" fill="none" fill-rule="evenodd" sketch:type="MSPage">
        <g id="Survey-Visitor-View---Dark-2-Copy-2" sketch:type="MSArtboardGroup" transform="translate(-720.000000, -855.000000)" stroke="" fill="#EDEDED">
            <g id="Group-Copy" sketch:type="MSLayerGroup" transform="translate(637.000000, 274.000000)">
                <g id="star129" transform="translate(11.000000, 582.000000)" sketch:type="MSShapeGroup">
                    <path d="M92.3691892,8.83189189 L88.2789189,12.8194595 L89.2443243,18.4502703 C89.3135135,18.8556757 89.1459459,19.2659459 88.8135135,19.5081081 C88.6254054,19.6448649 88.4016216,19.7145946 88.1778378,19.7145946 C88.0059459,19.7145946 87.832973,19.6735135 87.6745946,19.5902703 L82.6178378,16.9318919 L77.5610811,19.5902703 C77.1967568,19.7821622 76.7556757,19.7497297 76.4221622,19.5091892 C76.0897297,19.267027 75.9227027,18.8572973 75.9924324,18.4513514 L76.9583784,12.8205405 L72.867027,8.83243243 C72.5713514,8.54540541 72.4664865,8.11567568 72.5924324,7.72432432 C72.72,7.33297297 73.0578378,7.04810811 73.4654054,6.98864865 L79.1189189,6.16648649 L81.6486486,1.04324324 C81.8297297,0.673513514 82.2059459,0.44 82.6172973,0.44 C83.0297297,0.44 83.4043243,0.673513514 83.5864865,1.0427027 L86.1162162,6.16594595 L91.7708108,6.98810811 C92.1772973,7.04702703 92.5162162,7.33243243 92.6416216,7.72378378 C92.7702703,8.11513514 92.6627027,8.54486486 92.3691892,8.83189189 L92.3691892,8.83189189 Z" id="Shape-Copy-2"></path>
                </g>
            </g>
        </g>
    </g>
</svg>