<?xml version="1.0" encoding="UTF-8"?>
<svg width="104px" height="117px" viewBox="0 0 104 117" version="1.1" xmlns="http://www.w3.org/2000/svg" xmlns:xlink="http://www.w3.org/1999/xlink">
    <!-- Generator: Sketch 41.2 (35397) - http://www.bohemiancoding.com/sketch -->
    <title>Combined Shape</title>
    <desc>Created with Sketch.</desc>
    <defs></defs>
    <g id="Page-1" stroke="none" stroke-width="1" fill="none" fill-rule="evenodd">
        <path d="M77.7667652,96.6056373 L92.2766298,114.523828 C94.3603899,117.097057 98.1424919,117.488291 100.712487,115.40715 C103.287722,113.321765 103.68716,109.546471 101.602381,106.971983 L87.3863131,89.4166009 C97.336445,80.0015716 103.544,66.6717119 103.544,51.892 C103.544,23.3653881 80.4186119,0.24 51.892,0.24 C23.3653881,0.24 0.24,23.3653881 0.24,51.892 C0.24,80.4186119 23.3653881,103.544 51.892,103.544 C61.320216,103.544 70.1584337,101.017917 77.7667652,96.6056373 Z M51.892,91.544 C29.9928051,91.544 12.24,73.7911949 12.24,51.892 C12.24,29.9928051 29.9928051,12.24 51.892,12.24 C73.7911949,12.24 91.544,29.9928051 91.544,51.892 C91.544,73.7911949 73.7911949,91.544 51.892,91.544 Z" id="Combined-Shape" fill="#788290"></path>
    </g>
</svg>
