<?xml version="1.0" encoding="UTF-8" standalone="no"?>
<svg version="1.1" xmlns="http://www.w3.org/2000/svg"
    width="200" height="200">
    <defs>
        <linearGradient id="half_grad">
            <stop offset="50%" stop-color="#EBBC39"/>
            <stop offset="50%" stop-color="#EDEDED" stop-opacity="1" />
        </linearGradient>
    </defs>
    <path d="M68.3691892,8.83189189 L64.2789189,12.8194595 L65.2443243,18.4502703 C65.3135135,18.8556757 65.1459459,19.2659459 64.8135135,19.5081081 C64.6254054,19.6448649 64.4016216,19.7145946 64.1778378,19.7145946 C64.0059459,19.7145946 63.832973,19.6735135 63.6745946,19.5902703 L58.6178378,16.9318919 L53.5610811,19.5902703 C53.1967568,19.7821622 52.7556757,19.7497297 52.4221622,19.5091892 C52.0897297,19.267027 51.9227027,18.8572973 51.9924324,18.4513514 L52.9583784,12.8205405 L48.867027,8.83243243 C48.5713514,8.54540541 48.4664865,8.11567568 48.5924324,7.72432432 C48.72,7.33297297 49.0578378,7.04810811 49.4654054,6.98864865 L55.1189189,6.16648649 L57.6486486,1.04324324 C57.8297297,0.673513514 58.2059459,0.44 58.6172973,0.44 C59.0297297,0.44 59.4043243,0.673513514 59.5864865,1.0427027 L62.1162162,6.16594595 L67.7708108,6.98810811 C68.1772973,7.04702703 68.5162162,7.33243243 68.6416216,7.72378378 C68.7702703,8.11513514 68.6627027,8.54486486 68.3691892,8.83189189 L68.3691892,8.83189189 Z" id="Shape-Copy-3" fill="url(#half_grad)" stroke-width="1" stroke="#EDEDED"/>
</svg>
